<svg width="512" height="512" xmlns="http://www.w3.org/2000/svg">

 <g>
  <title>background</title>
  <rect fill="none" id="canvas_background" height="402" width="582" y="-1" x="-1"/>
 </g>
 <g>
  <title>Layer 1</title>
  <g transform="rotate(-180 256.00030517578125,256.0001220703125) " id="svg_1">
   <g id="svg_2">
    <path fill="#ffffff" id="svg_3" d="m379.644,477.872005l-207.299,-207.73c-7.798,-7.798 -7.798,-20.486 0.015,-28.299l207.283,-207.715c7.803,-7.819 7.789,-20.482 -0.029,-28.284c-7.819,-7.803 -20.482,-7.79 -28.284,0.029l-207.269,207.701c-23.394,23.394 -23.394,61.459 -0.015,84.838l207.284,207.715c3.907,3.915 9.031,5.873 14.157,5.873c5.111,0 10.224,-1.948 14.128,-5.844c7.818,-7.802 7.831,-20.465 0.029,-28.284z"/>
   </g>
  </g>
  <g id="svg_4"/>
  <g id="svg_5"/>
  <g id="svg_6"/>
  <g id="svg_7"/>
  <g id="svg_8"/>
  <g id="svg_9"/>
  <g id="svg_10"/>
  <g id="svg_11"/>
  <g id="svg_12"/>
  <g id="svg_13"/>
  <g id="svg_14"/>
  <g id="svg_15"/>
  <g id="svg_16"/>
  <g id="svg_17"/>
  <g id="svg_18"/>
 </g>
</svg>